solid OpenSCAD_Model
  facet normal -0 0 1
    outer loop
      vertex -0.05 0.05 2.9
      vertex 0.05 -0.05 2.9
      vertex 0.05 0.05 2.9
    endloop
  endfacet
  facet normal 0 0 1
    outer loop
      vertex 0.05 -0.05 2.9
      vertex -0.05 0.05 2.9
      vertex -0.05 -0.05 2.9
    endloop
  endfacet
  facet normal 0 0 -1
    outer loop
      vertex -0.05 -0.05 0
      vertex 0.05 0.05 0
      vertex 0.05 -0.05 0
    endloop
  endfacet
  facet normal -0 0 -1
    outer loop
      vertex 0.05 0.05 0
      vertex -0.05 -0.05 0
      vertex -0.05 0.05 0
    endloop
  endfacet
  facet normal 0 -1 0
    outer loop
      vertex -0.05 -0.05 0
      vertex 0.05 -0.05 2.9
      vertex -0.05 -0.05 2.9
    endloop
  endfacet
  facet normal 0 -1 -0
    outer loop
      vertex 0.05 -0.05 2.9
      vertex -0.05 -0.05 0
      vertex 0.05 -0.05 0
    endloop
  endfacet
  facet normal 1 -0 0
    outer loop
      vertex 0.05 -0.05 2.9
      vertex 0.05 0.05 0
      vertex 0.05 0.05 2.9
    endloop
  endfacet
  facet normal 1 0 0
    outer loop
      vertex 0.05 0.05 0
      vertex 0.05 -0.05 2.9
      vertex 0.05 -0.05 0
    endloop
  endfacet
  facet normal 0 1 -0
    outer loop
      vertex 0.05 0.05 0
      vertex -0.05 0.05 2.9
      vertex 0.05 0.05 2.9
    endloop
  endfacet
  facet normal 0 1 0
    outer loop
      vertex -0.05 0.05 2.9
      vertex 0.05 0.05 0
      vertex -0.05 0.05 0
    endloop
  endfacet
  facet normal -1 0 0
    outer loop
      vertex -0.05 -0.05 0
      vertex -0.05 0.05 2.9
      vertex -0.05 0.05 0
    endloop
  endfacet
  facet normal -1 -0 0
    outer loop
      vertex -0.05 0.05 2.9
      vertex -0.05 -0.05 0
      vertex -0.05 -0.05 2.9
    endloop
  endfacet
endsolid OpenSCAD_Model
